ISO-10303-21;
HEADER;
/* Generated by software containing ST-Developer
 * from STEP Tools, Inc. (www.steptools.com) 
 */

FILE_DESCRIPTION(
/* description */ (''),
/* implementation_level */ '2;1');

FILE_NAME(
/* name */ 'Switch Cover.step',
/* time_stamp */ '2026-06-21T02:03:56+03:00',
/* author */ (''),
/* organization */ (''),
/* preprocessor_version */ 'ST-DEVELOPER v20.1',
/* originating_system */ 'Autodesk Translation Framework v15.8.0.0',
/* authorisation */ '');

FILE_SCHEMA (('AUTOMOTIVE_DESIGN { 1 0 10303 214 3 1 1 }'));
ENDSEC;

DATA;
#10=MECHANICAL_DESIGN_GEOMETRIC_PRESENTATION_REPRESENTATION('',(#13),#677);
#11=SHAPE_REPRESENTATION_RELATIONSHIP('SRR','None',#684,#12);
#12=ADVANCED_BREP_SHAPE_REPRESENTATION('',(#14),#676);
#13=STYLED_ITEM('',(#693),#14);
#14=MANIFOLD_SOLID_BREP('Body1',#401);
#15=FACE_BOUND('',#58,.T.);
#16=FACE_BOUND('',#78,.T.);
#17=PLANE('',#418);
#18=PLANE('',#419);
#19=PLANE('',#427);
#20=PLANE('',#432);
#21=PLANE('',#435);
#22=PLANE('',#438);
#23=PLANE('',#439);
#24=PLANE('',#440);
#25=PLANE('',#441);
#26=PLANE('',#442);
#27=PLANE('',#443);
#28=PLANE('',#444);
#29=PLANE('',#445);
#30=PLANE('',#446);
#31=PLANE('',#447);
#32=PLANE('',#448);
#33=FACE_OUTER_BOUND('',#55,.T.);
#34=FACE_OUTER_BOUND('',#56,.T.);
#35=FACE_OUTER_BOUND('',#57,.T.);
#36=FACE_OUTER_BOUND('',#59,.T.);
#37=FACE_OUTER_BOUND('',#60,.T.);
#38=FACE_OUTER_BOUND('',#61,.T.);
#39=FACE_OUTER_BOUND('',#62,.T.);
#40=FACE_OUTER_BOUND('',#63,.T.);
#41=FACE_OUTER_BOUND('',#64,.T.);
#42=FACE_OUTER_BOUND('',#65,.T.);
#43=FACE_OUTER_BOUND('',#66,.T.);
#44=FACE_OUTER_BOUND('',#67,.T.);
#45=FACE_OUTER_BOUND('',#68,.T.);
#46=FACE_OUTER_BOUND('',#69,.T.);
#47=FACE_OUTER_BOUND('',#70,.T.);
#48=FACE_OUTER_BOUND('',#71,.T.);
#49=FACE_OUTER_BOUND('',#72,.T.);
#50=FACE_OUTER_BOUND('',#73,.T.);
#51=FACE_OUTER_BOUND('',#74,.T.);
#52=FACE_OUTER_BOUND('',#75,.T.);
#53=FACE_OUTER_BOUND('',#76,.T.);
#54=FACE_OUTER_BOUND('',#77,.T.);
#55=EDGE_LOOP('',(#265,#266,#267,#268));
#56=EDGE_LOOP('',(#269,#270,#271,#272));
#57=EDGE_LOOP('',(#273,#274,#275,#276,#277,#278,#279));
#58=EDGE_LOOP('',(#280,#281,#282,#283,#284,#285,#286));
#59=EDGE_LOOP('',(#287,#288,#289,#290));
#60=EDGE_LOOP('',(#291,#292,#293,#294));
#61=EDGE_LOOP('',(#295,#296,#297,#298));
#62=EDGE_LOOP('',(#299,#300,#301,#302));
#63=EDGE_LOOP('',(#303,#304,#305,#306));
#64=EDGE_LOOP('',(#307,#308,#309,#310));
#65=EDGE_LOOP('',(#311,#312,#313,#314));
#66=EDGE_LOOP('',(#315,#316,#317,#318));
#67=EDGE_LOOP('',(#319,#320,#321,#322));
#68=EDGE_LOOP('',(#323,#324,#325,#326));
#69=EDGE_LOOP('',(#327,#328,#329,#330));
#70=EDGE_LOOP('',(#331,#332,#333,#334));
#71=EDGE_LOOP('',(#335,#336,#337,#338));
#72=EDGE_LOOP('',(#339,#340,#341,#342));
#73=EDGE_LOOP('',(#343,#344,#345,#346));
#74=EDGE_LOOP('',(#347,#348,#349,#350));
#75=EDGE_LOOP('',(#351,#352,#353,#354));
#76=EDGE_LOOP('',(#355,#356,#357,#358,#359,#360,#361));
#77=EDGE_LOOP('',(#362,#363,#364,#365,#366,#367,#368));
#78=EDGE_LOOP('',(#369,#370,#371,#372));
#79=LINE('',#567,#121);
#80=LINE('',#570,#122);
#81=LINE('',#573,#123);
#82=LINE('',#575,#124);
#83=LINE('',#576,#125);
#84=LINE('',#579,#126);
#85=LINE('',#581,#127);
#86=LINE('',#585,#128);
#87=LINE('',#589,#129);
#88=LINE('',#591,#130);
#89=LINE('',#595,#131);
#90=LINE('',#599,#132);
#91=LINE('',#603,#133);
#92=LINE('',#607,#134);
#93=LINE('',#608,#135);
#94=LINE('',#611,#136);
#95=LINE('',#617,#137);
#96=LINE('',#618,#138);
#97=LINE('',#621,#139);
#98=LINE('',#622,#140);
#99=LINE('',#627,#141);
#100=LINE('',#628,#142);
#101=LINE('',#630,#143);
#102=LINE('',#635,#144);
#103=LINE('',#636,#145);
#104=LINE('',#638,#146);
#105=LINE('',#642,#147);
#106=LINE('',#644,#148);
#107=LINE('',#646,#149);
#108=LINE('',#647,#150);
#109=LINE('',#650,#151);
#110=LINE('',#652,#152);
#111=LINE('',#653,#153);
#112=LINE('',#656,#154);
#113=LINE('',#658,#155);
#114=LINE('',#659,#156);
#115=LINE('',#661,#157);
#116=LINE('',#662,#158);
#117=LINE('',#666,#159);
#118=LINE('',#667,#160);
#119=LINE('',#669,#161);
#120=LINE('',#671,#162);
#121=VECTOR('',#455,10.);
#122=VECTOR('',#458,10.);
#123=VECTOR('',#461,10.);
#124=VECTOR('',#462,10.);
#125=VECTOR('',#463,10.);
#126=VECTOR('',#466,10.);
#127=VECTOR('',#467,10.);
#128=VECTOR('',#470,10.);
#129=VECTOR('',#473,10.);
#130=VECTOR('',#474,10.);
#131=VECTOR('',#477,10.);
#132=VECTOR('',#480,10.);
#133=VECTOR('',#485,10.);
#134=VECTOR('',#490,10.);
#135=VECTOR('',#491,10.);
#136=VECTOR('',#494,10.);
#137=VECTOR('',#501,10.);
#138=VECTOR('',#502,10.);
#139=VECTOR('',#505,10.);
#140=VECTOR('',#506,10.);
#141=VECTOR('',#511,10.);
#142=VECTOR('',#512,10.);
#143=VECTOR('',#515,10.);
#144=VECTOR('',#520,10.);
#145=VECTOR('',#521,10.);
#146=VECTOR('',#524,10.);
#147=VECTOR('',#527,10.);
#148=VECTOR('',#528,10.);
#149=VECTOR('',#529,10.);
#150=VECTOR('',#530,10.);
#151=VECTOR('',#533,10.);
#152=VECTOR('',#534,10.);
#153=VECTOR('',#535,10.);
#154=VECTOR('',#538,10.);
#155=VECTOR('',#539,10.);
#156=VECTOR('',#540,10.);
#157=VECTOR('',#543,10.);
#158=VECTOR('',#544,10.);
#159=VECTOR('',#549,10.);
#160=VECTOR('',#550,10.);
#161=VECTOR('',#553,10.);
#162=VECTOR('',#556,10.);
#163=CIRCLE('',#416,1.5);
#164=CIRCLE('',#417,1.5);
#165=CIRCLE('',#420,1.5);
#166=CIRCLE('',#421,1.5);
#167=CIRCLE('',#422,1.);
#168=CIRCLE('',#423,1.);
#169=CIRCLE('',#424,1.);
#170=CIRCLE('',#426,1.5);
#171=CIRCLE('',#429,1.5);
#172=CIRCLE('',#431,1.);
#173=CIRCLE('',#434,1.);
#174=CIRCLE('',#437,1.);
#175=VERTEX_POINT('',#563);
#176=VERTEX_POINT('',#564);
#177=VERTEX_POINT('',#566);
#178=VERTEX_POINT('',#568);
#179=VERTEX_POINT('',#572);
#180=VERTEX_POINT('',#574);
#181=VERTEX_POINT('',#578);
#182=VERTEX_POINT('',#580);
#183=VERTEX_POINT('',#582);
#184=VERTEX_POINT('',#584);
#185=VERTEX_POINT('',#587);
#186=VERTEX_POINT('',#588);
#187=VERTEX_POINT('',#590);
#188=VERTEX_POINT('',#592);
#189=VERTEX_POINT('',#594);
#190=VERTEX_POINT('',#596);
#191=VERTEX_POINT('',#598);
#192=VERTEX_POINT('',#602);
#193=VERTEX_POINT('',#606);
#194=VERTEX_POINT('',#610);
#195=VERTEX_POINT('',#614);
#196=VERTEX_POINT('',#615);
#197=VERTEX_POINT('',#620);
#198=VERTEX_POINT('',#624);
#199=VERTEX_POINT('',#625);
#200=VERTEX_POINT('',#632);
#201=VERTEX_POINT('',#633);
#202=VERTEX_POINT('',#640);
#203=VERTEX_POINT('',#641);
#204=VERTEX_POINT('',#643);
#205=VERTEX_POINT('',#645);
#206=VERTEX_POINT('',#649);
#207=VERTEX_POINT('',#651);
#208=VERTEX_POINT('',#655);
#209=VERTEX_POINT('',#657);
#210=VERTEX_POINT('',#665);
#211=EDGE_CURVE('',#175,#176,#163,.T.);
#212=EDGE_CURVE('',#176,#177,#79,.T.);
#213=EDGE_CURVE('',#177,#178,#164,.T.);
#214=EDGE_CURVE('',#178,#175,#80,.T.);
#215=EDGE_CURVE('',#179,#176,#81,.T.);
#216=EDGE_CURVE('',#180,#179,#82,.T.);
#217=EDGE_CURVE('',#177,#180,#83,.T.);
#218=EDGE_CURVE('',#175,#181,#84,.T.);
#219=EDGE_CURVE('',#181,#182,#85,.T.);
#220=EDGE_CURVE('',#183,#182,#165,.T.);
#221=EDGE_CURVE('',#183,#184,#86,.T.);
#222=EDGE_CURVE('',#179,#184,#166,.T.);
#223=EDGE_CURVE('',#185,#186,#87,.T.);
#224=EDGE_CURVE('',#187,#185,#88,.T.);
#225=EDGE_CURVE('',#188,#187,#167,.F.);
#226=EDGE_CURVE('',#189,#188,#89,.T.);
#227=EDGE_CURVE('',#190,#189,#168,.F.);
#228=EDGE_CURVE('',#191,#190,#90,.T.);
#229=EDGE_CURVE('',#186,#191,#169,.F.);
#230=EDGE_CURVE('',#184,#192,#91,.T.);
#231=EDGE_CURVE('',#192,#180,#170,.T.);
#232=EDGE_CURVE('',#193,#183,#92,.T.);
#233=EDGE_CURVE('',#192,#193,#93,.T.);
#234=EDGE_CURVE('',#182,#194,#94,.T.);
#235=EDGE_CURVE('',#194,#193,#171,.T.);
#236=EDGE_CURVE('',#195,#196,#172,.T.);
#237=EDGE_CURVE('',#196,#188,#95,.T.);
#238=EDGE_CURVE('',#187,#195,#96,.T.);
#239=EDGE_CURVE('',#197,#185,#97,.T.);
#240=EDGE_CURVE('',#195,#197,#98,.T.);
#241=EDGE_CURVE('',#198,#199,#173,.T.);
#242=EDGE_CURVE('',#199,#190,#99,.T.);
#243=EDGE_CURVE('',#189,#198,#100,.T.);
#244=EDGE_CURVE('',#198,#196,#101,.T.);
#245=EDGE_CURVE('',#200,#201,#174,.T.);
#246=EDGE_CURVE('',#201,#186,#102,.T.);
#247=EDGE_CURVE('',#191,#200,#103,.T.);
#248=EDGE_CURVE('',#200,#199,#104,.T.);
#249=EDGE_CURVE('',#202,#203,#105,.F.);
#250=EDGE_CURVE('',#204,#202,#106,.T.);
#251=EDGE_CURVE('',#205,#204,#107,.F.);
#252=EDGE_CURVE('',#205,#203,#108,.T.);
#253=EDGE_CURVE('',#203,#206,#109,.F.);
#254=EDGE_CURVE('',#207,#205,#110,.F.);
#255=EDGE_CURVE('',#207,#206,#111,.T.);
#256=EDGE_CURVE('',#206,#208,#112,.F.);
#257=EDGE_CURVE('',#209,#207,#113,.F.);
#258=EDGE_CURVE('',#209,#208,#114,.F.);
#259=EDGE_CURVE('',#208,#202,#115,.F.);
#260=EDGE_CURVE('',#204,#209,#116,.F.);
#261=EDGE_CURVE('',#210,#181,#117,.T.);
#262=EDGE_CURVE('',#194,#210,#118,.T.);
#263=EDGE_CURVE('',#210,#178,#119,.T.);
#264=EDGE_CURVE('',#197,#201,#120,.T.);
#265=ORIENTED_EDGE('',*,*,#211,.T.);
#266=ORIENTED_EDGE('',*,*,#212,.T.);
#267=ORIENTED_EDGE('',*,*,#213,.T.);
#268=ORIENTED_EDGE('',*,*,#214,.T.);
#269=ORIENTED_EDGE('',*,*,#212,.F.);
#270=ORIENTED_EDGE('',*,*,#215,.F.);
#271=ORIENTED_EDGE('',*,*,#216,.F.);
#272=ORIENTED_EDGE('',*,*,#217,.F.);
#273=ORIENTED_EDGE('',*,*,#211,.F.);
#274=ORIENTED_EDGE('',*,*,#218,.T.);
#275=ORIENTED_EDGE('',*,*,#219,.T.);
#276=ORIENTED_EDGE('',*,*,#220,.F.);
#277=ORIENTED_EDGE('',*,*,#221,.T.);
#278=ORIENTED_EDGE('',*,*,#222,.F.);
#279=ORIENTED_EDGE('',*,*,#215,.T.);
#280=ORIENTED_EDGE('',*,*,#223,.F.);
#281=ORIENTED_EDGE('',*,*,#224,.F.);
#282=ORIENTED_EDGE('',*,*,#225,.F.);
#283=ORIENTED_EDGE('',*,*,#226,.F.);
#284=ORIENTED_EDGE('',*,*,#227,.F.);
#285=ORIENTED_EDGE('',*,*,#228,.F.);
#286=ORIENTED_EDGE('',*,*,#229,.F.);
#287=ORIENTED_EDGE('',*,*,#222,.T.);
#288=ORIENTED_EDGE('',*,*,#230,.T.);
#289=ORIENTED_EDGE('',*,*,#231,.T.);
#290=ORIENTED_EDGE('',*,*,#216,.T.);
#291=ORIENTED_EDGE('',*,*,#230,.F.);
#292=ORIENTED_EDGE('',*,*,#221,.F.);
#293=ORIENTED_EDGE('',*,*,#232,.F.);
#294=ORIENTED_EDGE('',*,*,#233,.F.);
#295=ORIENTED_EDGE('',*,*,#220,.T.);
#296=ORIENTED_EDGE('',*,*,#234,.T.);
#297=ORIENTED_EDGE('',*,*,#235,.T.);
#298=ORIENTED_EDGE('',*,*,#232,.T.);
#299=ORIENTED_EDGE('',*,*,#236,.T.);
#300=ORIENTED_EDGE('',*,*,#237,.T.);
#301=ORIENTED_EDGE('',*,*,#225,.T.);
#302=ORIENTED_EDGE('',*,*,#238,.T.);
#303=ORIENTED_EDGE('',*,*,#238,.F.);
#304=ORIENTED_EDGE('',*,*,#224,.T.);
#305=ORIENTED_EDGE('',*,*,#239,.F.);
#306=ORIENTED_EDGE('',*,*,#240,.F.);
#307=ORIENTED_EDGE('',*,*,#241,.T.);
#308=ORIENTED_EDGE('',*,*,#242,.T.);
#309=ORIENTED_EDGE('',*,*,#227,.T.);
#310=ORIENTED_EDGE('',*,*,#243,.T.);
#311=ORIENTED_EDGE('',*,*,#237,.F.);
#312=ORIENTED_EDGE('',*,*,#244,.F.);
#313=ORIENTED_EDGE('',*,*,#243,.F.);
#314=ORIENTED_EDGE('',*,*,#226,.T.);
#315=ORIENTED_EDGE('',*,*,#245,.T.);
#316=ORIENTED_EDGE('',*,*,#246,.T.);
#317=ORIENTED_EDGE('',*,*,#229,.T.);
#318=ORIENTED_EDGE('',*,*,#247,.T.);
#319=ORIENTED_EDGE('',*,*,#242,.F.);
#320=ORIENTED_EDGE('',*,*,#248,.F.);
#321=ORIENTED_EDGE('',*,*,#247,.F.);
#322=ORIENTED_EDGE('',*,*,#228,.T.);
#323=ORIENTED_EDGE('',*,*,#249,.F.);
#324=ORIENTED_EDGE('',*,*,#250,.F.);
#325=ORIENTED_EDGE('',*,*,#251,.F.);
#326=ORIENTED_EDGE('',*,*,#252,.T.);
#327=ORIENTED_EDGE('',*,*,#253,.F.);
#328=ORIENTED_EDGE('',*,*,#252,.F.);
#329=ORIENTED_EDGE('',*,*,#254,.F.);
#330=ORIENTED_EDGE('',*,*,#255,.T.);
#331=ORIENTED_EDGE('',*,*,#256,.F.);
#332=ORIENTED_EDGE('',*,*,#255,.F.);
#333=ORIENTED_EDGE('',*,*,#257,.F.);
#334=ORIENTED_EDGE('',*,*,#258,.T.);
#335=ORIENTED_EDGE('',*,*,#259,.F.);
#336=ORIENTED_EDGE('',*,*,#258,.F.);
#337=ORIENTED_EDGE('',*,*,#260,.F.);
#338=ORIENTED_EDGE('',*,*,#250,.T.);
#339=ORIENTED_EDGE('',*,*,#254,.T.);
#340=ORIENTED_EDGE('',*,*,#251,.T.);
#341=ORIENTED_EDGE('',*,*,#260,.T.);
#342=ORIENTED_EDGE('',*,*,#257,.T.);
#343=ORIENTED_EDGE('',*,*,#234,.F.);
#344=ORIENTED_EDGE('',*,*,#219,.F.);
#345=ORIENTED_EDGE('',*,*,#261,.F.);
#346=ORIENTED_EDGE('',*,*,#262,.F.);
#347=ORIENTED_EDGE('',*,*,#214,.F.);
#348=ORIENTED_EDGE('',*,*,#263,.F.);
#349=ORIENTED_EDGE('',*,*,#261,.T.);
#350=ORIENTED_EDGE('',*,*,#218,.F.);
#351=ORIENTED_EDGE('',*,*,#246,.F.);
#352=ORIENTED_EDGE('',*,*,#264,.F.);
#353=ORIENTED_EDGE('',*,*,#239,.T.);
#354=ORIENTED_EDGE('',*,*,#223,.T.);
#355=ORIENTED_EDGE('',*,*,#236,.F.);
#356=ORIENTED_EDGE('',*,*,#240,.T.);
#357=ORIENTED_EDGE('',*,*,#264,.T.);
#358=ORIENTED_EDGE('',*,*,#245,.F.);
#359=ORIENTED_EDGE('',*,*,#248,.T.);
#360=ORIENTED_EDGE('',*,*,#241,.F.);
#361=ORIENTED_EDGE('',*,*,#244,.T.);
#362=ORIENTED_EDGE('',*,*,#213,.F.);
#363=ORIENTED_EDGE('',*,*,#217,.T.);
#364=ORIENTED_EDGE('',*,*,#231,.F.);
#365=ORIENTED_EDGE('',*,*,#233,.T.);
#366=ORIENTED_EDGE('',*,*,#235,.F.);
#367=ORIENTED_EDGE('',*,*,#262,.T.);
#368=ORIENTED_EDGE('',*,*,#263,.T.);
#369=ORIENTED_EDGE('',*,*,#249,.T.);
#370=ORIENTED_EDGE('',*,*,#253,.T.);
#371=ORIENTED_EDGE('',*,*,#256,.T.);
#372=ORIENTED_EDGE('',*,*,#259,.T.);
#373=CYLINDRICAL_SURFACE('',#415,1.5);
#374=CYLINDRICAL_SURFACE('',#425,1.5);
#375=CYLINDRICAL_SURFACE('',#428,1.5);
#376=CYLINDRICAL_SURFACE('',#430,1.);
#377=CYLINDRICAL_SURFACE('',#433,1.);
#378=CYLINDRICAL_SURFACE('',#436,1.);
#379=ADVANCED_FACE('',(#33),#373,.T.);
#380=ADVANCED_FACE('',(#34),#17,.T.);
#381=ADVANCED_FACE('',(#35,#15),#18,.T.);
#382=ADVANCED_FACE('',(#36),#374,.T.);
#383=ADVANCED_FACE('',(#37),#19,.T.);
#384=ADVANCED_FACE('',(#38),#375,.T.);
#385=ADVANCED_FACE('',(#39),#376,.T.);
#386=ADVANCED_FACE('',(#40),#20,.T.);
#387=ADVANCED_FACE('',(#41),#377,.T.);
#388=ADVANCED_FACE('',(#42),#21,.T.);
#389=ADVANCED_FACE('',(#43),#378,.T.);
#390=ADVANCED_FACE('',(#44),#22,.T.);
#391=ADVANCED_FACE('',(#45),#23,.F.);
#392=ADVANCED_FACE('',(#46),#24,.F.);
#393=ADVANCED_FACE('',(#47),#25,.F.);
#394=ADVANCED_FACE('',(#48),#26,.F.);
#395=ADVANCED_FACE('',(#49),#27,.F.);
#396=ADVANCED_FACE('',(#50),#28,.T.);
#397=ADVANCED_FACE('',(#51),#29,.T.);
#398=ADVANCED_FACE('',(#52),#30,.T.);
#399=ADVANCED_FACE('',(#53),#31,.T.);
#400=ADVANCED_FACE('',(#54,#16),#32,.F.);
#401=CLOSED_SHELL('',(#379,#380,#381,#382,#383,#384,#385,#386,#387,#388,
#389,#390,#391,#392,#393,#394,#395,#396,#397,#398,#399,#400));
#402=DERIVED_UNIT_ELEMENT(#404,1.);
#403=DERIVED_UNIT_ELEMENT(#679,-3.);
#404=(
MASS_UNIT()
NAMED_UNIT(*)
SI_UNIT(.KILO.,.GRAM.)
);
#405=DERIVED_UNIT((#402,#403));
#406=MEASURE_REPRESENTATION_ITEM('density measure',
POSITIVE_RATIO_MEASURE(7850.),#405);
#407=PROPERTY_DEFINITION_REPRESENTATION(#412,#409);
#408=PROPERTY_DEFINITION_REPRESENTATION(#413,#410);
#409=REPRESENTATION('material name',(#411),#676);
#410=REPRESENTATION('density',(#406),#676);
#411=DESCRIPTIVE_REPRESENTATION_ITEM('Steel','Steel');
#412=PROPERTY_DEFINITION('material property','material name',#686);
#413=PROPERTY_DEFINITION('material property','density of part',#686);
#414=AXIS2_PLACEMENT_3D('',#561,#449,#450);
#415=AXIS2_PLACEMENT_3D('',#562,#451,#452);
#416=AXIS2_PLACEMENT_3D('',#565,#453,#454);
#417=AXIS2_PLACEMENT_3D('',#569,#456,#457);
#418=AXIS2_PLACEMENT_3D('',#571,#459,#460);
#419=AXIS2_PLACEMENT_3D('',#577,#464,#465);
#420=AXIS2_PLACEMENT_3D('',#583,#468,#469);
#421=AXIS2_PLACEMENT_3D('',#586,#471,#472);
#422=AXIS2_PLACEMENT_3D('',#593,#475,#476);
#423=AXIS2_PLACEMENT_3D('',#597,#478,#479);
#424=AXIS2_PLACEMENT_3D('',#600,#481,#482);
#425=AXIS2_PLACEMENT_3D('',#601,#483,#484);
#426=AXIS2_PLACEMENT_3D('',#604,#486,#487);
#427=AXIS2_PLACEMENT_3D('',#605,#488,#489);
#428=AXIS2_PLACEMENT_3D('',#609,#492,#493);
#429=AXIS2_PLACEMENT_3D('',#612,#495,#496);
#430=AXIS2_PLACEMENT_3D('',#613,#497,#498);
#431=AXIS2_PLACEMENT_3D('',#616,#499,#500);
#432=AXIS2_PLACEMENT_3D('',#619,#503,#504);
#433=AXIS2_PLACEMENT_3D('',#623,#507,#508);
#434=AXIS2_PLACEMENT_3D('',#626,#509,#510);
#435=AXIS2_PLACEMENT_3D('',#629,#513,#514);
#436=AXIS2_PLACEMENT_3D('',#631,#516,#517);
#437=AXIS2_PLACEMENT_3D('',#634,#518,#519);
#438=AXIS2_PLACEMENT_3D('',#637,#522,#523);
#439=AXIS2_PLACEMENT_3D('',#639,#525,#526);
#440=AXIS2_PLACEMENT_3D('',#648,#531,#532);
#441=AXIS2_PLACEMENT_3D('',#654,#536,#537);
#442=AXIS2_PLACEMENT_3D('',#660,#541,#542);
#443=AXIS2_PLACEMENT_3D('',#663,#545,#546);
#444=AXIS2_PLACEMENT_3D('',#664,#547,#548);
#445=AXIS2_PLACEMENT_3D('',#668,#551,#552);
#446=AXIS2_PLACEMENT_3D('',#670,#554,#555);
#447=AXIS2_PLACEMENT_3D('',#672,#557,#558);
#448=AXIS2_PLACEMENT_3D('',#673,#559,#560);
#449=DIRECTION('axis',(0.,0.,1.));
#450=DIRECTION('refdir',(1.,0.,0.));
#451=DIRECTION('center_axis',(-1.,0.,0.));
#452=DIRECTION('ref_axis',(0.,-0.707106781186547,0.707106781186547));
#453=DIRECTION('center_axis',(1.,0.,0.));
#454=DIRECTION('ref_axis',(0.,-0.707106781186547,0.707106781186547));
#455=DIRECTION('',(1.,0.,0.));
#456=DIRECTION('center_axis',(-1.,6.14522715747974E-32,-2.77555756156289E-17));
#457=DIRECTION('ref_axis',(0.,-0.707106781186547,0.707106781186547));
#458=DIRECTION('',(-1.,0.,0.));
#459=DIRECTION('center_axis',(0.,-1.,3.1720657846433E-16));
#460=DIRECTION('ref_axis',(0.,3.1720657846433E-16,1.));
#461=DIRECTION('',(0.,3.1720657846433E-16,1.));
#462=DIRECTION('',(-1.,0.,0.));
#463=DIRECTION('',(0.,-3.1720657846433E-16,-1.));
#464=DIRECTION('center_axis',(-1.,0.,0.));
#465=DIRECTION('ref_axis',(0.,0.,1.));
#466=DIRECTION('',(0.,1.,-2.01858731750028E-16));
#467=DIRECTION('',(0.,0.,-1.));
#468=DIRECTION('center_axis',(1.,0.,0.));
#469=DIRECTION('ref_axis',(0.,0.707106781186547,-0.707106781186548));
#470=DIRECTION('',(0.,-1.,0.));
#471=DIRECTION('center_axis',(1.,0.,0.));
#472=DIRECTION('ref_axis',(0.,-0.707106781186548,-0.707106781186547));
#473=DIRECTION('',(0.,-4.01017805333837E-32,-1.));
#474=DIRECTION('',(0.,1.,1.41496893873328E-31));
#475=DIRECTION('center_axis',(1.,0.,0.));
#476=DIRECTION('ref_axis',(0.,-0.707106781186547,0.707106781186548));
#477=DIRECTION('',(0.,4.01017805333837E-32,1.));
#478=DIRECTION('center_axis',(1.,0.,0.));
#479=DIRECTION('ref_axis',(0.,-0.707106781186547,-0.707106781186548));
#480=DIRECTION('',(0.,-1.,-1.41496893873328E-31));
#481=DIRECTION('center_axis',(1.,0.,0.));
#482=DIRECTION('ref_axis',(0.,0.707106781186548,-0.707106781186548));
#483=DIRECTION('center_axis',(-1.,0.,0.));
#484=DIRECTION('ref_axis',(0.,-0.707106781186548,-0.707106781186547));
#485=DIRECTION('',(1.,0.,0.));
#486=DIRECTION('center_axis',(-1.,6.14522715747974E-32,-2.77555756156289E-17));
#487=DIRECTION('ref_axis',(0.,-0.707106781186548,-0.707106781186547));
#488=DIRECTION('center_axis',(0.,0.,-1.));
#489=DIRECTION('ref_axis',(0.,-1.,0.));
#490=DIRECTION('',(-1.,0.,0.));
#491=DIRECTION('',(0.,1.,0.));
#492=DIRECTION('center_axis',(-1.,0.,0.));
#493=DIRECTION('ref_axis',(0.,0.707106781186547,-0.707106781186548));
#494=DIRECTION('',(1.,0.,0.));
#495=DIRECTION('center_axis',(-1.,6.14522715747974E-32,-2.77555756156289E-17));
#496=DIRECTION('ref_axis',(0.,0.707106781186547,-0.707106781186548));
#497=DIRECTION('center_axis',(1.,1.41610079671576E-16,1.27449071704418E-15));
#498=DIRECTION('ref_axis',(0.,-0.707106781186547,0.707106781186548));
#499=DIRECTION('center_axis',(1.,1.110223024625E-16,1.31103938214525E-15));
#500=DIRECTION('ref_axis',(0.,-0.707106781186547,0.707106781186548));
#501=DIRECTION('',(1.,1.41610079671576E-16,1.27449071704418E-15));
#502=DIRECTION('',(-1.,-1.41610079671576E-16,-1.27449071704418E-15));
#503=DIRECTION('center_axis',(-1.27449071704418E-15,-1.41496893873328E-31,
1.));
#504=DIRECTION('ref_axis',(1.110223024625E-16,-1.,2.57631724635859E-48));
#505=DIRECTION('',(1.,1.41610079671576E-16,1.27449071704418E-15));
#506=DIRECTION('',(-1.110223024625E-16,1.,-2.57631724635859E-48));
#507=DIRECTION('center_axis',(1.,1.41610079671576E-16,1.27449071704418E-15));
#508=DIRECTION('ref_axis',(0.,-0.707106781186547,-0.707106781186548));
#509=DIRECTION('center_axis',(1.,1.110223024625E-16,1.31103938214525E-15));
#510=DIRECTION('ref_axis',(0.,-0.707106781186547,-0.707106781186548));
#511=DIRECTION('',(1.,1.41610079671576E-16,1.27449071704418E-15));
#512=DIRECTION('',(-1.,-1.41610079671576E-16,-1.27449071704418E-15));
#513=DIRECTION('center_axis',(1.41610079671576E-16,-1.,4.01017805333837E-32));
#514=DIRECTION('ref_axis',(1.31103938214525E-15,1.4555461082478E-31,-1.));
#515=DIRECTION('',(-1.31103938214525E-15,-1.4555461082478E-31,1.));
#516=DIRECTION('center_axis',(1.,1.41610079671576E-16,1.27449071704418E-15));
#517=DIRECTION('ref_axis',(0.,0.707106781186548,-0.707106781186548));
#518=DIRECTION('center_axis',(1.,1.110223024625E-16,1.31103938214525E-15));
#519=DIRECTION('ref_axis',(0.,0.707106781186548,-0.707106781186548));
#520=DIRECTION('',(1.,1.41610079671576E-16,1.27449071704418E-15));
#521=DIRECTION('',(-1.,-1.41610079671576E-16,-1.27449071704418E-15));
#522=DIRECTION('center_axis',(1.27449071704418E-15,1.41496893873328E-31,
-1.));
#523=DIRECTION('ref_axis',(-1.110223024625E-16,1.,-2.57631724635859E-48));
#524=DIRECTION('',(1.110223024625E-16,-1.,2.57631724635859E-48));
#525=DIRECTION('center_axis',(1.40067632319071E-31,1.,-1.11022302462516E-16));
#526=DIRECTION('ref_axis',(-1.02775557561563E-15,1.11022302462516E-16,1.));
#527=DIRECTION('',(-2.77555756156289E-17,1.11022302462516E-16,1.));
#528=DIRECTION('',(1.,0.,1.26161707343767E-15));
#529=DIRECTION('',(1.50775557561563E-15,-1.11022302462516E-16,-1.));
#530=DIRECTION('',(1.,0.,1.26161707343767E-15));
#531=DIRECTION('center_axis',(1.26161707343767E-15,-1.11022302462516E-16,
-1.));
#532=DIRECTION('ref_axis',(-1.110223024625E-16,1.,-1.11022302462516E-16));
#533=DIRECTION('',(6.45337594858169E-32,1.,-1.11022302462515E-16));
#534=DIRECTION('',(1.110223024625E-16,-1.,1.11022302462516E-16));
#535=DIRECTION('',(1.,0.,1.26161707343767E-15));
#536=DIRECTION('center_axis',(-1.40067632319071E-31,-1.,1.11022302462516E-16));
#537=DIRECTION('ref_axis',(1.02775557561563E-15,-1.11022302462516E-16,-1.));
#538=DIRECTION('',(2.77555756156289E-17,-1.11022302462516E-16,-1.));
#539=DIRECTION('',(-1.50775557561563E-15,1.11022302462516E-16,1.));
#540=DIRECTION('',(-1.,0.,-1.26161707343767E-15));
#541=DIRECTION('center_axis',(-1.26161707343767E-15,1.11022302462516E-16,
1.));
#542=DIRECTION('ref_axis',(1.110223024625E-16,-1.,1.11022302462516E-16));
#543=DIRECTION('',(-6.45337594858169E-32,-1.,1.11022302462515E-16));
#544=DIRECTION('',(-1.110223024625E-16,1.,-1.11022302462516E-16));
#545=DIRECTION('center_axis',(-1.,-1.110223024625E-16,-1.50775557561563E-15));
#546=DIRECTION('ref_axis',(-1.50775557561563E-15,1.11022302462515E-16,1.));
#547=DIRECTION('center_axis',(0.,1.,0.));
#548=DIRECTION('ref_axis',(0.,0.,-1.));
#549=DIRECTION('',(-1.,0.,0.));
#550=DIRECTION('',(0.,0.,1.));
#551=DIRECTION('center_axis',(0.,2.01858731750028E-16,1.));
#552=DIRECTION('ref_axis',(0.,1.,-2.01858731750028E-16));
#553=DIRECTION('',(0.,-1.,2.01858731750028E-16));
#554=DIRECTION('center_axis',(-1.41610079671576E-16,1.,-4.01017805333837E-32));
#555=DIRECTION('ref_axis',(-1.31103938214525E-15,-1.4555461082478E-31,1.));
#556=DIRECTION('',(1.31103938214525E-15,1.4555461082478E-31,-1.));
#557=DIRECTION('center_axis',(-1.,-1.110223024625E-16,-1.31103938214525E-15));
#558=DIRECTION('ref_axis',(1.110223024625E-16,-1.,2.57631724635859E-48));
#559=DIRECTION('center_axis',(-1.,6.14522715747974E-32,-2.77555756156289E-17));
#560=DIRECTION('ref_axis',(-2.77555756156289E-17,0.,1.));
#561=CARTESIAN_POINT('',(0.,0.,0.));
#562=CARTESIAN_POINT('Origin',(-26.4,5.482215,6.09880000000001));
#563=CARTESIAN_POINT('',(-27.4,5.482215,7.59880000000001));
#564=CARTESIAN_POINT('',(-27.4,3.982215,6.09880000000001));
#565=CARTESIAN_POINT('Origin',(-27.4,5.482215,6.09880000000001));
#566=CARTESIAN_POINT('',(-26.4,3.982215,6.09880000000001));
#567=CARTESIAN_POINT('',(-26.4,3.982215,6.09880000000001));
#568=CARTESIAN_POINT('',(-26.4,5.482215,7.59880000000001));
#569=CARTESIAN_POINT('Origin',(-26.4,5.482215,6.09880000000001));
#570=CARTESIAN_POINT('',(-26.4,5.482215,7.59880000000001));
#571=CARTESIAN_POINT('Origin',(-26.4,3.982215,4.09880000000001));
#572=CARTESIAN_POINT('',(-27.4,3.982215,5.59880000000001));
#573=CARTESIAN_POINT('',(-27.4,3.982215,7.59880000000001));
#574=CARTESIAN_POINT('',(-26.4,3.982215,5.59880000000001));
#575=CARTESIAN_POINT('',(-26.4,3.982215,5.59880000000001));
#576=CARTESIAN_POINT('',(-26.4,3.982215,7.59880000000001));
#577=CARTESIAN_POINT('Origin',(-27.4,6.732215,5.84880000000001));
#578=CARTESIAN_POINT('',(-27.4,9.482215,7.59880000000001));
#579=CARTESIAN_POINT('',(-27.4,9.482215,7.59880000000001));
#580=CARTESIAN_POINT('',(-27.4,9.482215,5.59880000000001));
#581=CARTESIAN_POINT('',(-27.4,9.482215,4.09880000000001));
#582=CARTESIAN_POINT('',(-27.4,7.982215,4.09880000000001));
#583=CARTESIAN_POINT('Origin',(-27.4,7.982215,5.59880000000001));
#584=CARTESIAN_POINT('',(-27.4,5.482215,4.09880000000001));
#585=CARTESIAN_POINT('',(-27.4,3.982215,4.09880000000001));
#586=CARTESIAN_POINT('Origin',(-27.4,5.482215,5.59880000000001));
#587=CARTESIAN_POINT('',(-27.4,6.982215,7.09880000000001));
#588=CARTESIAN_POINT('',(-27.4,6.982215,5.59880000000001));
#589=CARTESIAN_POINT('',(-27.4,6.982215,5.22380000000001));
#590=CARTESIAN_POINT('',(-27.4,5.482215,7.09880000000001));
#591=CARTESIAN_POINT('',(-27.4,6.857215,7.09880000000001));
#592=CARTESIAN_POINT('',(-27.4,4.482215,6.09880000000001));
#593=CARTESIAN_POINT('Origin',(-27.4,5.482215,6.09880000000001));
#594=CARTESIAN_POINT('',(-27.4,4.482215,5.59880000000001));
#595=CARTESIAN_POINT('',(-27.4,4.482215,6.47380000000001));
#596=CARTESIAN_POINT('',(-27.4,5.482215,4.59880000000001));
#597=CARTESIAN_POINT('Origin',(-27.4,5.482215,5.59880000000001));
#598=CARTESIAN_POINT('',(-27.4,5.982215,4.59880000000001));
#599=CARTESIAN_POINT('',(-27.4,5.607215,4.59880000000001));
#600=CARTESIAN_POINT('Origin',(-27.4,5.982215,5.59880000000001));
#601=CARTESIAN_POINT('Origin',(-26.4,5.482215,5.59880000000001));
#602=CARTESIAN_POINT('',(-26.4,5.482215,4.09880000000001));
#603=CARTESIAN_POINT('',(-26.4,5.482215,4.09880000000001));
#604=CARTESIAN_POINT('Origin',(-26.4,5.482215,5.59880000000001));
#605=CARTESIAN_POINT('Origin',(-26.4,9.482215,4.09880000000001));
#606=CARTESIAN_POINT('',(-26.4,7.982215,4.09880000000001));
#607=CARTESIAN_POINT('',(-26.4,7.982215,4.09880000000001));
#608=CARTESIAN_POINT('',(-26.4,3.982215,4.09880000000001));
#609=CARTESIAN_POINT('Origin',(-26.4,7.982215,5.59880000000001));
#610=CARTESIAN_POINT('',(-26.4,9.482215,5.59880000000001));
#611=CARTESIAN_POINT('',(-26.4,9.482215,5.59880000000001));
#612=CARTESIAN_POINT('Origin',(-26.4,7.982215,5.59880000000001));
#613=CARTESIAN_POINT('Origin',(-29.2,5.482215,6.09880000000001));
#614=CARTESIAN_POINT('',(-29.2,5.482215,7.09880000000001));
#615=CARTESIAN_POINT('',(-29.2,4.482215,6.09880000000001));
#616=CARTESIAN_POINT('Origin',(-29.2,5.482215,6.09880000000001));
#617=CARTESIAN_POINT('',(-29.2,4.482215,6.09880000000001));
#618=CARTESIAN_POINT('',(-29.2,5.482215,7.09880000000001));
#619=CARTESIAN_POINT('Origin',(-29.2,6.982215,7.09880000000001));
#620=CARTESIAN_POINT('',(-29.2,6.982215,7.09880000000001));
#621=CARTESIAN_POINT('',(-29.2,6.982215,7.09880000000001));
#622=CARTESIAN_POINT('',(-29.2,4.482215,7.09880000000001));
#623=CARTESIAN_POINT('Origin',(-29.2,5.482215,5.59880000000001));
#624=CARTESIAN_POINT('',(-29.2,4.482215,5.59880000000001));
#625=CARTESIAN_POINT('',(-29.2,5.482215,4.5988));
#626=CARTESIAN_POINT('Origin',(-29.2,5.482215,5.59880000000001));
#627=CARTESIAN_POINT('',(-29.2,5.482215,4.5988));
#628=CARTESIAN_POINT('',(-29.2,4.482215,5.59880000000001));
#629=CARTESIAN_POINT('Origin',(-29.2,4.482215,7.09880000000001));
#630=CARTESIAN_POINT('',(-29.2,4.482215,4.5988));
#631=CARTESIAN_POINT('Origin',(-29.2,5.982215,5.59880000000001));
#632=CARTESIAN_POINT('',(-29.2,5.982215,4.5988));
#633=CARTESIAN_POINT('',(-29.2,6.982215,5.59880000000001));
#634=CARTESIAN_POINT('Origin',(-29.2,5.982215,5.59880000000001));
#635=CARTESIAN_POINT('',(-29.2,6.982215,5.59880000000001));
#636=CARTESIAN_POINT('',(-29.2,5.982215,4.5988));
#637=CARTESIAN_POINT('Origin',(-29.2,4.482215,4.5988));
#638=CARTESIAN_POINT('',(-29.2,6.982215,4.5988));
#639=CARTESIAN_POINT('Origin',(-27.2,6.582215,5.09880000000001));
#640=CARTESIAN_POINT('',(-26.4,6.582215,6.69880000000001));
#641=CARTESIAN_POINT('',(-26.4,6.582215,4.99880000000001));
#642=CARTESIAN_POINT('',(-26.4,6.582215,5.47380000000001));
#643=CARTESIAN_POINT('',(-27.3,6.582215,6.69880000000001));
#644=CARTESIAN_POINT('',(-27.2,6.582215,6.69880000000001));
#645=CARTESIAN_POINT('',(-27.3,6.582215,4.99880000000001));
#646=CARTESIAN_POINT('',(-27.3,6.582215,5.09880000000001));
#647=CARTESIAN_POINT('',(-27.2,6.582215,4.99880000000001));
#648=CARTESIAN_POINT('Origin',(-27.2,4.982215,4.99880000000001));
#649=CARTESIAN_POINT('',(-26.4,4.882215,4.99880000000001));
#650=CARTESIAN_POINT('',(-26.4,5.357215,4.99880000000001));
#651=CARTESIAN_POINT('',(-27.3,4.882215,4.99880000000001));
#652=CARTESIAN_POINT('',(-27.3,4.982215,4.99880000000001));
#653=CARTESIAN_POINT('',(-27.2,4.882215,4.99880000000001));
#654=CARTESIAN_POINT('Origin',(-27.2,4.882215,6.59880000000001));
#655=CARTESIAN_POINT('',(-26.4,4.882215,6.69880000000001));
#656=CARTESIAN_POINT('',(-26.4,4.882215,6.22380000000001));
#657=CARTESIAN_POINT('',(-27.3,4.882215,6.69880000000001));
#658=CARTESIAN_POINT('',(-27.3,4.882215,5.84880000000001));
#659=CARTESIAN_POINT('',(-27.2,4.882215,6.69880000000001));
#660=CARTESIAN_POINT('Origin',(-27.2,6.482215,6.69880000000001));
#661=CARTESIAN_POINT('',(-26.4,6.107215,6.69880000000001));
#662=CARTESIAN_POINT('',(-27.3,5.732215,6.69880000000001));
#663=CARTESIAN_POINT('Origin',(-27.3,4.982215,5.09880000000001));
#664=CARTESIAN_POINT('Origin',(-26.4,9.482215,7.59880000000001));
#665=CARTESIAN_POINT('',(-26.4,9.482215,7.59880000000001));
#666=CARTESIAN_POINT('',(-26.4,9.482215,7.59880000000001));
#667=CARTESIAN_POINT('',(-26.4,9.482215,4.09880000000001));
#668=CARTESIAN_POINT('Origin',(-26.4,3.982215,7.59880000000001));
#669=CARTESIAN_POINT('',(-26.4,9.482215,7.59880000000001));
#670=CARTESIAN_POINT('Origin',(-29.2,6.982215,4.59880000000001));
#671=CARTESIAN_POINT('',(-29.2,6.982215,7.09880000000001));
#672=CARTESIAN_POINT('Origin',(-29.2,5.732215,5.84880000000001));
#673=CARTESIAN_POINT('Origin',(-26.4,5.732215,5.84880000000001));
#674=UNCERTAINTY_MEASURE_WITH_UNIT(LENGTH_MEASURE(0.01),#678,
'DISTANCE_ACCURACY_VALUE',
'Maximum model space distance between geometric entities at asserted c
onnectivities');
#675=UNCERTAINTY_MEASURE_WITH_UNIT(LENGTH_MEASURE(0.01),#678,
'DISTANCE_ACCURACY_VALUE',
'Maximum model space distance between geometric entities at asserted c
onnectivities');
#676=(
GEOMETRIC_REPRESENTATION_CONTEXT(3)
GLOBAL_UNCERTAINTY_ASSIGNED_CONTEXT((#674))
GLOBAL_UNIT_ASSIGNED_CONTEXT((#678,#680,#681))
REPRESENTATION_CONTEXT('','3D')
);
#677=(
GEOMETRIC_REPRESENTATION_CONTEXT(3)
GLOBAL_UNCERTAINTY_ASSIGNED_CONTEXT((#675))
GLOBAL_UNIT_ASSIGNED_CONTEXT((#678,#680,#681))
REPRESENTATION_CONTEXT('','3D')
);
#678=(
LENGTH_UNIT()
NAMED_UNIT(*)
SI_UNIT(.MILLI.,.METRE.)
);
#679=(
LENGTH_UNIT()
NAMED_UNIT(*)
SI_UNIT($,.METRE.)
);
#680=(
NAMED_UNIT(*)
PLANE_ANGLE_UNIT()
SI_UNIT($,.RADIAN.)
);
#681=(
NAMED_UNIT(*)
SI_UNIT($,.STERADIAN.)
SOLID_ANGLE_UNIT()
);
#682=SHAPE_DEFINITION_REPRESENTATION(#683,#684);
#683=PRODUCT_DEFINITION_SHAPE('',$,#686);
#684=SHAPE_REPRESENTATION('',(#414),#676);
#685=PRODUCT_DEFINITION_CONTEXT('part definition',#690,'design');
#686=PRODUCT_DEFINITION('Switch Cover','Switch Cover',#687,#685);
#687=PRODUCT_DEFINITION_FORMATION('',$,#692);
#688=PRODUCT_RELATED_PRODUCT_CATEGORY('Switch Cover','Switch Cover',(#692));
#689=APPLICATION_PROTOCOL_DEFINITION('international standard',
'automotive_design',2009,#690);
#690=APPLICATION_CONTEXT(
'Core Data for Automotive Mechanical Design Process');
#691=PRODUCT_CONTEXT('part definition',#690,'mechanical');
#692=PRODUCT('Switch Cover','Switch Cover',$,(#691));
#693=PRESENTATION_STYLE_ASSIGNMENT((#694));
#694=SURFACE_STYLE_USAGE(.BOTH.,#695);
#695=SURFACE_SIDE_STYLE('',(#696));
#696=SURFACE_STYLE_FILL_AREA(#697);
#697=FILL_AREA_STYLE('Steel - Satin',(#698));
#698=FILL_AREA_STYLE_COLOUR('Steel - Satin',#699);
#699=COLOUR_RGB('Steel - Satin',0.627450980392157,0.627450980392157,0.627450980392157);
ENDSEC;
END-ISO-10303-21;
